<svg xmlns="http://www.w3.org/2000/svg" viewBox="0 0 300.85 278.88"><defs><style>.cls-1{fill:#02253e;}.cls-2{fill:#d1d3d4;}.cls-3{fill:#598aac;}.cls-4{fill:#84b6db;}.cls-5{fill:#bcbec0;}.cls-6{fill:#3599cc;}</style></defs><title>Asset 1</title><g id="Layer_2" data-name="Layer 2"><g id="Layer_1-2" data-name="Layer 1"><path class="cls-1" d="M149.91,34.85H148V63c.68,0,1.35-.07,2-.07,1.14,0,2.26.06,3.36.17V34.85h-1.91a17.45,17.45,0,1,0-1.56,0"/><path class="cls-1" d="M284.67,194.66a34.34,34.34,0,0,1-5.39,1.61v14.39L242,248l3.81,3.81,38.65-38.65-.07-.07h.31Z"/><path class="cls-2" d="M275.57,145.83h-.09C262,98.52,211.34,63.37,151,63.37s-111,35.17-124.53,82.49l-1.14,0a25.28,25.28,0,0,0,0,50.57l1.14,0C39.93,243.7,90.56,278.88,151,278.88s111-35.16,124.53-82.48h.08a25.28,25.28,0,0,0,0-50.57"/><path class="cls-3" d="M91.2,200.81S78.34,230.39,76,233.69C67.86,244.91,129,218.08,129,218.08Z"/><path class="cls-4" d="M246.53,171.49c0-30.16-43-54.61-96.06-54.61S54.4,141.33,54.4,171.49s43,54.61,96.06,54.61,96.06-24.45,96.06-54.61"/><path class="cls-5" d="M151,63.37a153.49,153.49,0,0,0-15.43.78C199,70.56,248.18,116,248.18,171.12S199,271.68,135.53,278.1a153.49,153.49,0,0,0,15.43.78c70.74,0,128.08-48.24,128.08-107.76S221.69,63.37,151,63.37"/><path class="cls-3" d="M72,176.39c0-30.16,43-54.61,96.06-54.61a162.6,162.6,0,0,1,33.05,3.32,153.3,153.3,0,0,0-50.69-8.22c-53.05,0-96.06,24.45-96.06,54.61,0,23.56,26.24,43.63,63,51.29C90.17,213.15,72,196,72,176.39"/><path class="cls-6" d="M110.39,171.49a14.83,14.83,0,1,0-14.83,14.83,14.83,14.83,0,0,0,14.83-14.83"/><path class="cls-2" d="M165.3,177.49a14.83,14.83,0,1,0-14.83,14.83,14.83,14.83,0,0,0,14.83-14.83"/><path class="cls-6" d="M220.2,171.49a14.83,14.83,0,1,0-14.83,14.83,14.83,14.83,0,0,0,14.83-14.83"/><path class="cls-1" d="M249.49,261A17.45,17.45,0,1,0,232,278.42,17.45,17.45,0,0,0,249.49,261"/></g></g></svg>